<svg id="svg" version="1.1" xmlns="http://www.w3.org/2000/svg" xmlns:xlink="http://www.w3.org/1999/xlink" width="400" height="320" viewBox="0, 0, 400,320"><g id="svgg"><path id="path0" d="M0.000 160.000 L 0.000 320.000 200.000 320.000 L 400.000 320.000 400.000 160.000 L 400.000 0.000 200.000 0.000 L 0.000 0.000 0.000 160.000 M198.000 105.100 L 198.000 111.600 197.300 111.600 L 196.600 111.600 196.600 105.100 L 196.600 98.600 197.300 98.600 L 198.000 98.600 198.000 105.100 M172.947 111.393 C 174.631 114.398,175.985 116.878,175.955 116.903 C 175.925 116.928,175.630 117.086,175.300 117.254 L 174.700 117.559 171.568 111.976 L 168.436 106.394 168.968 106.105 C 169.766 105.673,169.667 105.540,172.947 111.393 M227.834 107.451 L 228.369 107.900 225.092 113.100 C 223.289 115.960,221.785 118.379,221.749 118.476 C 221.712 118.573,221.388 118.501,221.028 118.315 C 220.669 118.129,220.403 117.901,220.437 117.810 C 220.577 117.439,227.107 107.003,227.200 107.003 C 227.255 107.002,227.541 107.204,227.834 107.451 M158.556 131.331 C 159.654 132.029,159.656 132.038,159.029 132.975 C 158.884 133.192,148.842 127.275,148.028 126.492 C 147.989 126.454,148.148 126.154,148.383 125.824 L 148.809 125.225 153.155 127.942 C 155.545 129.436,157.975 130.961,158.556 131.331 M247.583 128.142 C 247.796 128.610,247.780 128.720,247.468 128.948 C 246.878 129.380,236.772 135.041,236.724 134.967 C 236.097 134.021,236.021 133.810,236.251 133.660 C 237.246 133.013,246.946 127.608,247.118 127.604 C 247.238 127.602,247.447 127.844,247.583 128.142 M187.500 138.500 C 187.500 138.838,187.388 138.890,186.771 138.837 C 186.195 138.787,185.974 138.870,185.721 139.231 C 184.995 140.268,185.647 141.342,186.880 141.142 C 187.991 140.962,188.152 141.670,187.070 141.980 C 184.964 142.584,183.474 139.561,185.256 138.300 C 185.925 137.827,187.500 137.967,187.500 138.500 M189.800 138.800 L 189.800 139.600 190.600 139.600 L 191.400 139.600 191.400 138.800 C 191.400 138.080,191.450 138.000,191.900 138.000 L 192.400 138.000 192.400 140.000 L 192.400 142.000 191.900 142.000 C 191.450 142.000,191.400 141.920,191.400 141.200 L 191.400 140.400 190.600 140.400 L 189.800 140.400 189.800 141.200 C 189.800 141.920,189.750 142.000,189.300 142.000 L 188.800 142.000 188.800 140.000 L 188.800 138.000 189.300 138.000 C 189.750 138.000,189.800 138.080,189.800 138.800 M194.400 139.213 C 194.400 140.572,194.643 141.200,195.167 141.200 C 195.801 141.200,196.000 140.761,196.000 139.360 C 196.000 138.028,196.011 138.000,196.521 138.000 L 197.042 138.000 196.969 139.620 C 196.866 141.879,195.424 142.844,194.063 141.565 C 193.404 140.946,193.352 138.000,194.000 138.000 C 194.356 138.000,194.400 138.133,194.400 139.213 M200.600 138.400 C 201.047 138.847,201.112 139.536,200.776 140.273 C 200.597 140.665,200.617 140.857,200.876 141.227 C 201.311 141.847,201.285 142.000,200.743 142.000 C 200.448 142.000,200.161 141.788,199.932 141.400 C 199.737 141.070,199.447 140.800,199.289 140.800 C 199.101 140.800,199.000 141.010,199.000 141.400 C 199.000 141.867,198.911 142.000,198.600 142.000 C 198.227 142.000,198.200 141.867,198.200 140.000 L 198.200 138.000 199.200 138.000 C 199.933 138.000,200.307 138.107,200.600 138.400 M205.100 138.500 C 205.100 138.833,204.988 138.889,204.432 138.835 C 203.604 138.754,203.000 139.252,203.000 140.017 C 203.000 140.857,203.520 141.264,204.411 141.121 C 205.443 140.956,205.725 141.702,204.731 141.966 C 202.602 142.533,201.038 139.879,202.673 138.473 C 203.427 137.824,205.100 137.843,205.100 138.500 M207.400 138.800 L 207.400 139.600 208.200 139.600 L 209.000 139.600 209.000 138.800 C 209.000 138.133,209.067 138.000,209.400 138.000 C 209.773 138.000,209.800 138.133,209.800 140.000 C 209.800 141.867,209.773 142.000,209.400 142.000 C 209.067 142.000,209.000 141.867,209.000 141.200 L 209.000 140.400 208.200 140.400 L 207.400 140.400 207.400 141.200 C 207.400 141.920,207.350 142.000,206.900 142.000 L 206.400 142.000 206.400 140.000 L 206.400 138.000 206.900 138.000 C 207.350 138.000,207.400 138.080,207.400 138.800 M199.000 139.400 C 199.000 140.076,199.378 140.194,199.893 139.679 C 200.275 139.296,199.983 138.800,199.376 138.800 C 199.092 138.800,199.000 138.946,199.000 139.400 M211.318 147.999 C 216.305 150.135,216.992 161.978,212.255 164.146 C 207.640 166.259,203.538 160.790,206.017 155.829 C 207.107 153.647,209.676 152.477,211.378 153.388 C 211.901 153.668,211.901 153.577,211.381 152.037 C 210.504 149.439,208.144 148.004,206.509 149.075 C 205.457 149.765,205.203 149.110,206.238 148.373 C 207.588 147.411,209.600 147.263,211.318 147.999 M189.495 148.489 C 191.316 149.036,192.189 150.467,191.508 151.784 C 190.800 153.153,189.371 153.025,189.007 151.559 C 188.889 151.087,188.727 150.439,188.645 150.121 C 187.910 147.245,184.024 150.710,183.383 154.813 C 182.554 160.122,184.574 164.009,187.796 163.301 L 188.400 163.168 188.400 160.484 L 188.400 157.800 187.400 157.800 C 186.467 157.800,186.400 157.767,186.400 157.300 L 186.400 156.800 189.800 156.800 L 193.200 156.800 193.200 157.300 C 193.200 157.750,193.120 157.800,192.400 157.800 L 191.600 157.800 191.600 161.364 C 191.600 166.199,191.179 167.494,189.164 168.847 C 186.954 170.331,182.000 170.286,182.000 168.782 C 182.000 167.540,182.872 167.253,183.535 168.277 C 184.689 170.059,187.648 168.885,188.173 166.437 C 188.607 164.414,188.689 164.501,186.350 164.493 C 181.969 164.477,179.648 162.108,179.439 157.439 C 179.155 151.094,183.955 146.821,189.495 148.489 M201.346 153.710 C 203.169 154.520,204.114 156.507,203.956 159.200 C 203.531 166.432,194.351 166.508,194.035 159.282 C 193.824 154.463,197.218 151.875,201.346 153.710 M198.017 155.020 C 196.975 156.733,197.326 162.877,198.491 163.324 C 199.860 163.850,200.500 162.376,200.500 158.700 C 200.500 155.545,200.161 154.544,199.055 154.438 C 198.510 154.385,198.348 154.477,198.017 155.020 M209.611 154.789 C 208.315 156.085,208.730 162.974,210.125 163.324 C 211.394 163.643,211.900 162.228,211.900 158.366 C 211.900 154.718,211.034 153.366,209.611 154.789 M152.400 156.300 L 152.400 157.000 146.000 157.000 L 139.600 157.000 139.600 156.300 L 139.600 155.600 146.000 155.600 L 152.400 155.600 152.400 156.300 M255.000 156.300 L 255.000 157.000 248.500 157.000 L 242.000 157.000 242.000 156.300 L 242.000 155.600 248.500 155.600 L 255.000 155.600 255.000 156.300 M158.234 178.190 C 158.648 178.918,159.186 178.528,152.887 182.069 C 147.127 185.307,147.361 185.212,147.023 184.470 C 146.710 183.784,146.302 184.077,152.400 180.619 C 158.505 177.158,157.811 177.447,158.234 178.190 M241.273 182.800 C 244.195 184.615,246.588 186.145,246.591 186.200 C 246.595 186.255,246.396 186.539,246.149 186.832 L 245.700 187.364 240.600 184.172 C 237.795 182.416,235.378 180.908,235.229 180.820 C 234.925 180.641,235.465 179.316,235.793 179.437 C 235.886 179.472,238.352 180.985,241.273 182.800 M173.623 194.312 C 173.954 194.483,174.197 194.699,174.163 194.791 C 174.027 195.153,167.494 205.589,167.400 205.593 C 167.345 205.596,167.063 205.396,166.773 205.149 L 166.246 204.700 169.573 199.355 C 171.403 196.415,172.927 194.007,172.960 194.005 C 172.993 194.002,173.291 194.140,173.623 194.312 M223.069 200.752 C 224.681 203.640,226.000 206.082,226.000 206.178 C 226.000 206.359,224.831 206.911,224.729 206.777 C 224.124 205.984,218.582 195.706,218.732 195.656 C 218.848 195.617,219.114 195.459,219.322 195.305 C 219.839 194.921,219.717 194.744,223.069 200.752 M198.000 207.500 L 198.000 214.000 197.300 214.000 L 196.600 214.000 196.600 207.500 L 196.600 201.000 197.300 201.000 L 198.000 201.000 198.000 207.500 " stroke="none" fill="#fbfbfb" fill-rule="evenodd"></path><path id="path1" d="M196.600 105.100 L 196.600 111.400 197.300 111.400 L 198.000 111.400 198.000 105.100 L 198.000 98.800 197.300 98.800 L 196.600 98.800 196.600 105.100 M169.055 106.154 L 168.609 106.500 171.632 111.900 C 173.295 114.870,174.676 117.326,174.702 117.357 C 174.875 117.571,175.798 116.882,175.697 116.614 C 175.482 116.044,169.706 105.800,169.602 105.804 C 169.546 105.807,169.300 105.964,169.055 106.154 M223.962 112.251 C 220.270 118.194,220.402 117.918,221.081 118.228 C 221.367 118.358,221.631 118.428,221.667 118.382 C 221.751 118.276,227.893 108.384,228.090 108.037 C 228.239 107.775,227.708 107.218,227.300 107.207 C 227.190 107.204,225.688 109.474,223.962 112.251 M148.402 125.897 C 148.059 126.537,147.588 126.174,153.565 129.869 C 159.168 133.333,158.838 133.178,159.256 132.539 C 159.556 132.081,159.524 132.057,154.426 128.851 C 148.413 125.070,148.755 125.237,148.402 125.897 M241.831 130.584 C 238.933 132.220,236.473 133.647,236.365 133.755 C 236.160 133.960,236.549 134.800,236.849 134.800 C 237.073 134.800,247.801 128.729,247.796 128.605 C 247.793 128.547,247.636 128.300,247.446 128.055 L 247.100 127.611 241.831 130.584 M185.210 138.560 C 183.665 140.104,185.260 142.655,187.284 141.879 C 187.903 141.641,187.654 141.139,186.984 141.273 C 186.228 141.424,185.641 141.135,185.395 140.488 C 184.999 139.446,186.051 138.292,186.955 138.776 C 187.278 138.949,187.385 138.927,187.485 138.668 C 187.804 137.837,186.018 137.752,185.210 138.560 M189.000 140.000 C 189.000 141.644,189.053 142.000,189.300 142.000 C 189.517 142.000,189.600 141.778,189.600 141.200 L 189.600 140.400 190.600 140.400 L 191.600 140.400 191.600 141.200 C 191.600 141.778,191.683 142.000,191.900 142.000 C 192.147 142.000,192.200 141.644,192.200 140.000 C 192.200 138.356,192.147 138.000,191.900 138.000 C 191.683 138.000,191.600 138.222,191.600 138.800 L 191.600 139.600 190.600 139.600 L 189.600 139.600 189.600 138.800 C 189.600 138.222,189.517 138.000,189.300 138.000 C 189.053 138.000,189.000 138.356,189.000 140.000 M193.631 139.620 C 193.733 141.869,194.853 142.702,196.273 141.585 C 196.911 141.083,197.106 138.000,196.500 138.000 C 196.262 138.000,196.200 138.288,196.200 139.395 C 196.200 140.653,196.152 140.822,195.713 141.110 C 194.787 141.717,194.400 141.241,194.400 139.493 C 194.400 138.108,194.369 138.000,193.979 138.000 C 193.579 138.000,193.561 138.083,193.631 139.620 M198.200 140.000 C 198.200 141.867,198.227 142.000,198.600 142.000 C 198.924 142.000,199.000 141.867,199.000 141.300 C 199.000 140.398,199.367 140.399,199.952 141.302 C 200.228 141.729,200.564 142.000,200.818 142.000 L 201.233 142.000 200.818 141.328 C 200.425 140.693,200.420 140.621,200.725 140.010 C 201.303 138.851,200.525 138.000,198.887 138.000 L 198.200 138.000 198.200 140.000 M202.785 138.585 C 201.260 140.110,203.170 142.965,204.957 141.831 C 205.395 141.553,205.031 140.969,204.572 141.215 C 204.058 141.490,203.462 141.280,203.073 140.686 C 202.428 139.702,203.388 138.377,204.453 138.782 C 204.873 138.942,204.977 138.911,205.057 138.605 C 205.265 137.808,203.576 137.793,202.785 138.585 M206.600 140.000 C 206.600 141.644,206.653 142.000,206.900 142.000 C 207.117 142.000,207.200 141.778,207.200 141.200 L 207.200 140.400 208.100 140.400 L 209.000 140.400 209.000 141.200 C 209.000 141.867,209.067 142.000,209.400 142.000 C 209.773 142.000,209.800 141.867,209.800 140.000 C 209.800 138.133,209.773 138.000,209.400 138.000 C 209.067 138.000,209.000 138.133,209.000 138.800 L 209.000 139.600 208.100 139.600 L 207.200 139.600 207.200 138.800 C 207.200 138.222,207.117 138.000,206.900 138.000 C 206.653 138.000,206.600 138.356,206.600 140.000 M200.100 139.400 C 200.100 139.797,199.986 139.913,199.550 139.963 C 199.054 140.020,199.000 139.966,199.000 139.400 C 199.000 138.834,199.054 138.780,199.550 138.837 C 199.986 138.887,200.100 139.003,200.100 139.400 M207.500 147.841 C 206.719 148.114,205.564 148.979,205.695 149.192 C 205.752 149.283,206.132 149.187,206.541 148.979 C 208.798 147.828,210.998 149.586,211.873 153.240 L 212.003 153.781 211.308 153.490 C 207.491 151.895,203.981 157.308,205.968 161.726 C 207.443 165.009,211.757 165.501,213.939 162.637 C 216.342 159.481,215.515 151.441,212.523 148.880 C 211.223 147.768,209.016 147.311,207.500 147.841 M185.500 148.477 C 181.352 149.486,178.882 153.546,179.544 158.265 C 180.149 162.573,183.317 165.042,187.504 164.468 L 188.460 164.337 188.352 165.675 C 188.074 169.139,184.953 170.464,183.112 167.900 C 182.679 167.297,182.086 167.969,182.176 168.960 C 182.295 170.265,187.415 170.015,189.354 168.610 C 191.079 167.361,191.286 166.682,191.400 161.900 L 191.500 157.700 192.250 157.638 C 192.838 157.589,193.000 157.492,193.000 157.188 C 193.000 156.820,192.833 156.800,189.800 156.800 C 186.733 156.800,186.600 156.817,186.600 157.200 C 186.600 157.541,186.733 157.600,187.505 157.600 L 188.411 157.600 188.355 160.450 L 188.300 163.300 187.092 163.358 C 185.489 163.436,184.720 162.940,183.900 161.300 C 183.139 159.777,182.998 154.965,183.659 153.070 C 185.061 149.053,188.403 147.746,189.001 150.980 C 189.322 152.712,190.298 153.201,191.185 152.073 C 192.970 149.804,189.380 147.534,185.500 148.477 M197.599 153.375 C 192.078 155.186,193.163 164.408,198.903 164.462 C 205.388 164.523,205.780 153.645,199.306 153.279 C 198.643 153.241,197.874 153.284,197.599 153.375 M199.787 154.587 C 201.037 155.837,200.887 162.269,199.586 163.241 C 198.044 164.391,196.951 161.450,197.376 157.298 C 197.652 154.601,198.664 153.464,199.787 154.587 M211.557 154.891 C 212.703 156.348,212.119 162.694,210.773 163.414 C 208.946 164.392,207.828 156.648,209.525 154.772 C 210.023 154.222,211.080 154.284,211.557 154.891 M139.800 156.300 L 139.800 157.000 146.100 157.000 L 152.400 157.000 152.400 156.300 L 152.400 155.600 146.100 155.600 L 139.800 155.600 139.800 156.300 M242.200 156.300 L 242.200 157.000 248.500 157.000 L 254.800 157.000 254.800 156.300 L 254.800 155.600 248.500 155.600 L 242.200 155.600 242.200 156.300 M152.150 180.863 C 149.208 182.533,146.802 183.945,146.804 184.000 C 146.807 184.055,146.964 184.300,147.154 184.544 L 147.500 184.989 152.759 182.025 C 158.728 178.662,158.529 178.801,158.168 178.224 C 157.796 177.627,158.038 177.520,152.150 180.863 M235.333 180.078 L 235.007 180.576 240.326 183.888 C 243.251 185.710,245.710 187.200,245.790 187.200 C 245.937 187.200,246.465 186.183,246.357 186.108 C 245.747 185.681,236.180 179.780,235.964 179.697 C 235.774 179.624,235.536 179.767,235.333 180.078 M169.816 199.193 C 168.046 202.042,166.550 204.498,166.491 204.651 C 166.401 204.886,167.342 205.546,167.500 205.357 C 167.779 205.024,174.000 194.926,174.000 194.807 C 174.000 194.718,173.783 194.504,173.517 194.329 L 173.034 194.013 169.816 199.193 M219.150 195.479 C 218.957 195.625,218.800 195.807,218.800 195.884 C 218.800 196.118,224.849 206.800,224.979 206.796 C 225.045 206.793,225.293 206.636,225.530 206.446 L 225.960 206.100 222.930 200.716 C 219.783 195.124,219.725 195.043,219.150 195.479 M196.600 207.500 L 196.600 213.800 197.300 213.800 L 198.000 213.800 198.000 207.500 L 198.000 201.200 197.300 201.200 L 196.600 201.200 196.600 207.500 " stroke="none" fill="#0b0b0b" fill-rule="evenodd"></path><path id="path2" d="M196.952 111.541 C 197.201 111.589,197.561 111.587,197.752 111.537 C 197.944 111.487,197.740 111.448,197.300 111.450 C 196.860 111.453,196.704 111.494,196.952 111.541 M188.874 140.000 C 188.874 141.155,188.907 141.628,188.947 141.050 C 188.988 140.472,188.988 139.528,188.947 138.950 C 188.907 138.373,188.874 138.845,188.874 140.000 M192.274 140.000 C 192.274 141.155,192.307 141.628,192.347 141.050 C 192.388 140.472,192.388 139.528,192.347 138.950 C 192.307 138.373,192.274 138.845,192.274 140.000 M196.867 139.400 C 196.867 140.225,196.903 140.563,196.946 140.150 C 196.989 139.738,196.989 139.063,196.946 138.650 C 196.903 138.238,196.867 138.575,196.867 139.400 M207.254 138.800 C 207.254 139.295,207.293 139.498,207.341 139.250 C 207.389 139.003,207.389 138.597,207.341 138.350 C 207.293 138.103,207.254 138.305,207.254 138.800 M207.254 141.200 C 207.254 141.695,207.293 141.898,207.341 141.650 C 207.389 141.403,207.389 140.998,207.341 140.750 C 207.293 140.503,207.254 140.705,207.254 141.200 M139.650 156.300 C 139.653 156.740,139.694 156.896,139.741 156.648 C 139.789 156.399,139.787 156.039,139.737 155.848 C 139.687 155.656,139.648 155.860,139.650 156.300 M242.050 156.300 C 242.053 156.740,242.094 156.896,242.141 156.648 C 242.189 156.399,242.187 156.039,242.137 155.848 C 242.087 155.656,242.048 155.860,242.050 156.300 M254.850 156.300 C 254.853 156.740,254.894 156.896,254.941 156.648 C 254.989 156.399,254.987 156.039,254.937 155.848 C 254.887 155.656,254.848 155.860,254.850 156.300 M196.952 201.141 C 197.201 201.189,197.561 201.187,197.752 201.137 C 197.944 201.087,197.740 201.048,197.300 201.050 C 196.860 201.053,196.704 201.094,196.952 201.141 M196.952 213.941 C 197.201 213.989,197.561 213.987,197.752 213.937 C 197.944 213.887,197.740 213.848,197.300 213.850 C 196.860 213.853,196.704 213.894,196.952 213.941 " stroke="none" fill="#a0a0a0" fill-rule="evenodd"></path><path id="path3" d="" stroke="none" fill="#848484" fill-rule="evenodd"></path><path id="path4" d="M196.952 98.741 C 197.201 98.789,197.561 98.787,197.752 98.737 C 197.944 98.687,197.740 98.648,197.300 98.650 C 196.860 98.653,196.704 98.694,196.952 98.741 M191.454 138.800 C 191.454 139.295,191.493 139.498,191.541 139.250 C 191.589 139.003,191.589 138.597,191.541 138.350 C 191.493 138.103,191.454 138.305,191.454 138.800 M196.067 139.400 C 196.067 140.225,196.103 140.563,196.146 140.150 C 196.189 139.738,196.189 139.063,196.146 138.650 C 196.103 138.238,196.067 138.575,196.067 139.400 M206.474 140.000 C 206.474 141.155,206.507 141.628,206.547 141.050 C 206.588 140.472,206.588 139.528,206.547 138.950 C 206.507 138.373,206.474 138.845,206.474 140.000 M189.650 138.900 C 189.653 139.340,189.694 139.496,189.741 139.248 C 189.789 138.999,189.787 138.639,189.737 138.448 C 189.687 138.256,189.648 138.460,189.650 138.900 M189.654 141.200 C 189.654 141.695,189.693 141.898,189.741 141.650 C 189.789 141.403,189.789 140.998,189.741 140.750 C 189.693 140.503,189.654 140.705,189.654 141.200 M191.454 141.200 C 191.454 141.695,191.493 141.898,191.541 141.650 C 191.589 141.403,191.589 140.998,191.541 140.750 C 191.493 140.503,191.454 140.705,191.454 141.200 M212.060 158.400 C 212.060 159.005,212.097 159.253,212.143 158.950 C 212.189 158.648,212.189 158.153,212.143 157.850 C 212.097 157.548,212.060 157.795,212.060 158.400 M187.053 157.744 C 187.357 157.789,187.807 157.788,188.053 157.741 C 188.299 157.693,188.050 157.656,187.500 157.657 C 186.950 157.659,186.749 157.698,187.053 157.744 M191.489 157.858 C 191.434 157.999,191.417 159.597,191.450 161.408 L 191.511 164.700 191.555 161.262 L 191.600 157.824 192.350 157.746 L 193.100 157.667 192.344 157.634 C 191.884 157.613,191.549 157.701,191.489 157.858 M197.250 158.900 C 197.253 159.340,197.294 159.496,197.341 159.248 C 197.389 158.999,197.387 158.639,197.337 158.448 C 197.287 158.256,197.248 158.460,197.250 158.900 M184.550 169.941 C 184.798 169.989,185.203 169.989,185.450 169.941 C 185.697 169.893,185.495 169.854,185.000 169.854 C 184.505 169.854,184.303 169.893,184.550 169.941 " stroke="none" fill="#7c7c7c" fill-rule="evenodd"></path></g></svg>